<svg width="1002" height="96" viewBox="0 0 1002 96" fill="none" xmlns="http://www.w3.org/2000/svg">
<path d="M0.191965 94H18.368V57.008C18.368 45.616 21.952 41.008 29.376 41.008C37.184 41.008 38.848 46.64 38.848 53.424V94H56.896V56.112C56.896 46 59.968 40.88 67.648 40.88C75.2 40.88 77.376 46.768 77.376 52.784V94H95.296V50.48C95.296 33.328 85.824 26.16 74.304 26.16C63.424 26.16 57.792 30.896 53.824 36.272C51.52 31.152 46.272 26.16 36.8 26.16C27.072 26.16 21.696 30.768 18.368 35.632C18.24 33.072 17.856 29.36 17.6 27.696H0.0639648C0.191965 33.456 0.191965 39.088 0.191965 44.848V94Z" fill="#212121"/>
<path d="M165.982 49.072C165.982 33.2 156.254 26.288 138.59 26.16C118.366 26.16 111.07 35.632 110.174 47.408H127.582C128.35 42.544 130.142 39.344 137.822 39.344C146.398 39.344 148.062 43.952 148.062 48.688V52.656H138.59C119.134 52.656 107.102 59.696 107.102 74.8C107.102 85.04 113.758 95.536 129.758 95.536C141.534 95.536 146.014 91.184 148.446 87.472C148.446 89.136 148.83 92.72 149.342 94H166.878C166.494 92.464 165.982 83.248 165.982 76.848V49.072ZM148.062 65.584C148.062 74.288 146.654 82.48 135.006 82.48C128.35 82.48 125.406 78.384 125.406 73.648C125.406 67.248 129.502 63.792 140.638 63.792H148.062V65.584Z" fill="#212121"/>
<path d="M174.792 41.52H185.032V76.336C185.032 87.984 189.256 94.896 202.184 94.896C205.896 94.896 210.888 94.896 214.472 93.616V81.072C213.192 81.2 211.4 81.2 210.376 81.2C204.872 81.2 203.336 79.28 203.336 74.288V41.52H216.392V27.696H203.336V9.77599H185.032V27.696H174.792V41.52Z" fill="#212121"/>
<path d="M226.817 0.559998V94H245.249V58.8C245.249 48.688 247.169 41.008 257.409 41.008C265.089 41.008 268.161 45.616 268.161 54.192V94H286.337V51.504C286.337 33.584 276.481 26.16 264.193 26.16C253.441 26.16 248.065 31.28 245.249 35.632V0.559998H226.817Z" fill="#212121"/>
<path d="M361.185 64.816C361.441 62.896 361.441 61.488 361.441 59.184C361.441 42.672 353.633 26.16 330.977 26.16C309.601 26.16 298.977 41.008 298.977 61.872C298.977 79.28 308.449 95.536 330.337 95.536C351.073 95.536 358.369 82.224 360.673 74.16H342.369C340.577 78.128 338.401 81.2 330.721 81.2C321.633 81.2 317.409 73.136 317.409 64.816H361.185ZM317.793 53.552C318.561 45.36 322.145 39.344 330.849 39.344C339.809 39.344 342.881 45.872 343.009 53.552H317.793Z" fill="#212121"/>
<path d="M432.185 27.696H413.881V63.024C413.881 76.08 410.425 80.56 402.105 80.56C394.169 80.56 391.865 74.544 391.865 67.248V27.696H373.561V70.96C373.561 87.344 382.137 95.536 395.577 95.536C404.153 95.536 409.913 92.976 413.881 86.32C414.009 88.624 414.137 92.208 414.393 94H432.313C432.185 88.112 432.185 81.072 432.185 74.8V27.696Z" fill="#212121"/>
<path d="M443.212 74.032C444.748 85.808 452.94 95.536 473.164 95.536C493.26 95.536 501.708 85.552 501.708 74.544C501.708 64.816 498.508 57.264 476.364 52.144C465.612 49.584 463.564 48.048 463.564 44.72C463.564 41.776 465.612 39.088 471.628 39.088C480.204 39.088 481.868 43.696 482.508 46.128H499.916C499.404 37.168 492.492 26.16 472.396 26.16C452.428 26.16 445.644 36.528 445.644 46.256C445.644 55.6 449.1 62.256 470.732 67.632C480.204 69.936 483.02 71.6 483.02 75.824C483.02 79.92 480.588 82.352 473.804 82.352C467.02 82.352 462.668 79.408 461.26 74.032H443.212Z" fill="#212121"/>
<path d="M599.732 49.072C599.732 33.2 590.004 26.288 572.34 26.16C552.116 26.16 544.82 35.632 543.924 47.408H561.332C562.1 42.544 563.892 39.344 571.572 39.344C580.148 39.344 581.812 43.952 581.812 48.688V52.656H572.34C552.884 52.656 540.852 59.696 540.852 74.8C540.852 85.04 547.508 95.536 563.508 95.536C575.284 95.536 579.764 91.184 582.196 87.472C582.196 89.136 582.58 92.72 583.092 94H600.628C600.244 92.464 599.732 83.248 599.732 76.848V49.072ZM581.812 65.584C581.812 74.288 580.404 82.48 568.756 82.48C562.1 82.48 559.156 78.384 559.156 73.648C559.156 67.248 563.252 63.792 574.388 63.792H581.812V65.584Z" fill="#212121"/>
<path d="M634.624 94V0.559998H616.192V94H634.624Z" fill="#212121"/>
<path d="M651.067 94H669.243V57.008C669.243 45.616 672.827 41.008 680.251 41.008C688.059 41.008 689.723 46.64 689.723 53.424V94H707.771V56.112C707.771 46 710.843 40.88 718.523 40.88C726.075 40.88 728.251 46.768 728.251 52.784V94H746.171V50.48C746.171 33.328 736.699 26.16 725.179 26.16C714.299 26.16 708.667 30.896 704.699 36.272C702.395 31.152 697.147 26.16 687.675 26.16C677.947 26.16 672.571 30.768 669.243 35.632C669.115 33.072 668.731 29.36 668.475 27.696H650.939C651.067 33.456 651.067 39.088 651.067 44.848V94Z" fill="#212121"/>
<path d="M820.935 64.816C821.191 62.896 821.191 61.488 821.191 59.184C821.191 42.672 813.383 26.16 790.727 26.16C769.351 26.16 758.727 41.008 758.727 61.872C758.727 79.28 768.199 95.536 790.087 95.536C810.823 95.536 818.119 82.224 820.423 74.16H802.119C800.327 78.128 798.151 81.2 790.471 81.2C781.383 81.2 777.159 73.136 777.159 64.816H820.935ZM777.543 53.552C778.311 45.36 781.895 39.344 790.599 39.344C799.559 39.344 802.631 45.872 802.759 53.552H777.543Z" fill="#212121"/>
<path d="M833.942 94H852.374V27.696H833.942V94ZM852.374 16.944V0.559998H833.942V16.944H852.374Z" fill="#212121"/>
<path d="M911.313 0.559998V32.56C909.905 29.616 904.785 26.16 895.185 26.16C876.369 26.16 865.105 41.008 865.105 61.36C865.105 82.096 875.729 95.536 892.497 95.536C902.353 95.536 908.113 92.336 911.313 87.088C911.441 88.624 911.825 91.952 912.209 94H929.745C929.617 87.984 929.617 81.84 929.617 75.824V0.559998H911.313ZM883.921 60.976C883.921 48.432 888.785 40.88 898.385 40.88C910.417 40.88 912.081 49.456 912.081 60.848C912.081 70.32 910.545 80.816 898.001 80.816C888.913 80.816 883.921 73.904 883.921 60.976Z" fill="#212121"/>
<path d="M1000.36 49.072C1000.36 33.2 990.629 26.288 972.965 26.16C952.741 26.16 945.445 35.632 944.549 47.408H961.957C962.725 42.544 964.517 39.344 972.197 39.344C980.773 39.344 982.437 43.952 982.437 48.688V52.656H972.965C953.509 52.656 941.477 59.696 941.477 74.8C941.477 85.04 948.133 95.536 964.133 95.536C975.909 95.536 980.389 91.184 982.821 87.472C982.821 89.136 983.205 92.72 983.717 94H1001.25C1000.87 92.464 1000.36 83.248 1000.36 76.848V49.072ZM982.437 65.584C982.437 74.288 981.029 82.48 969.381 82.48C962.725 82.48 959.781 78.384 959.781 73.648C959.781 67.248 963.877 63.792 975.013 63.792H982.437V65.584Z" fill="#212121"/>
</svg>
