<svg width="442" height="84" viewBox="0 0 442 84" fill="none" xmlns="http://www.w3.org/2000/svg">
<path d="M1.10401 82V39.376C1.10401 32.79 1.06701 27.832 0.993011 24.502H16.2C16.496 26.574 16.718 28.868 16.866 31.384C20.64 25.908 25.968 23.17 32.85 23.17C40.028 23.17 44.949 26.093 47.613 31.939C51.905 26.093 57.825 23.17 65.373 23.17C70.701 23.17 75.067 24.946 78.471 28.498C81.875 31.976 83.577 37.23 83.577 44.26V82H68.037V46.258C68.037 39.376 65.225 35.935 59.601 35.935C56.345 35.935 53.977 37.045 52.497 39.265C51.017 41.411 50.277 44.704 50.277 49.144V82H34.626V46.813C34.626 43.483 34.034 40.856 32.85 38.932C31.666 37.008 29.52 36.046 26.412 36.046C23.156 36.046 20.751 37.156 19.197 39.376C17.643 41.522 16.866 45.037 16.866 49.921V82H1.10401Z" fill="black"/>
<path d="M148.411 24.502V65.35C148.411 73.046 148.448 78.596 148.522 82H132.982C132.908 81.408 132.76 79.188 132.538 75.34C129.356 80.668 124.065 83.332 116.665 83.332C110.671 83.332 105.972 81.519 102.568 77.893C99.2384 74.267 97.5734 68.976 97.5734 62.02V24.502H113.446V58.801C113.446 66.497 116.406 70.345 122.326 70.345C125.952 70.345 128.542 69.198 130.096 66.904C131.724 64.61 132.538 60.688 132.538 55.138V24.502H148.411Z" fill="black"/>
<path d="M158.043 36.49V24.502H166.923V8.962H182.796V24.502H194.118V36.49H182.796V64.906C182.796 67.126 183.203 68.68 184.017 69.568C184.905 70.456 186.533 70.9 188.901 70.9C190.529 70.9 191.713 70.863 192.453 70.789V81.667C190.381 82.407 186.829 82.777 181.797 82.777C176.395 82.777 172.547 81.445 170.253 78.781C168.033 76.043 166.923 72.01 166.923 66.682V36.49H158.043Z" fill="black"/>
<path d="M203.159 0.970001H219.143V31.384C222.695 25.908 228.171 23.17 235.571 23.17C241.269 23.17 245.894 24.983 249.446 28.609C252.998 32.235 254.774 37.748 254.774 45.148V82H239.012V47.479C239.012 39.857 235.904 36.046 229.688 36.046C225.618 36.046 222.843 37.378 221.363 40.042C219.883 42.706 219.143 46.517 219.143 51.475V82H203.159V0.970001Z" fill="black"/>
<path d="M319.681 56.692H281.719C281.719 60.614 282.718 63.981 284.716 66.793C286.714 69.531 289.563 70.9 293.263 70.9C296.297 70.9 298.517 70.419 299.923 69.457C301.329 68.421 302.476 66.867 303.364 64.795H319.237C318.645 66.867 317.794 68.865 316.684 70.789C315.648 72.639 314.131 74.6 312.133 76.672C310.209 78.67 307.582 80.298 304.252 81.556C300.922 82.74 297.148 83.332 292.93 83.332C283.976 83.332 277.205 80.52 272.617 74.896C268.029 69.272 265.735 62.353 265.735 54.139C265.735 44.741 268.103 37.23 272.839 31.606C277.575 25.982 284.457 23.17 293.485 23.17C298.221 23.17 302.328 23.984 305.806 25.612C309.358 27.166 312.133 29.349 314.131 32.161C316.129 34.973 317.572 38.007 318.46 41.263C319.422 44.519 319.903 48.034 319.903 51.808C319.903 53.954 319.829 55.582 319.681 56.692ZM282.052 46.924H303.919C303.771 38.71 300.256 34.603 293.374 34.603C286.566 34.603 282.792 38.71 282.052 46.924Z" fill="black"/>
<path d="M381.251 24.502V65.35C381.251 73.046 381.288 78.596 381.362 82H365.822C365.748 81.408 365.6 79.188 365.378 75.34C362.196 80.668 356.905 83.332 349.505 83.332C343.511 83.332 338.812 81.519 335.408 77.893C332.078 74.267 330.413 68.976 330.413 62.02V24.502H346.286V58.801C346.286 66.497 349.246 70.345 355.166 70.345C358.792 70.345 361.382 69.198 362.936 66.904C364.564 64.61 365.378 60.688 365.378 55.138V24.502H381.251Z" fill="black"/>
<path d="M390.814 64.684H406.465C407.723 69.494 411.349 71.899 417.343 71.899C422.671 71.899 425.335 70.012 425.335 66.238C425.335 64.462 424.595 63.093 423.115 62.131C421.635 61.169 418.823 60.17 414.679 59.134C405.947 56.988 400.138 54.509 397.252 51.697C394.366 48.811 392.923 45.111 392.923 40.597C392.923 35.787 394.773 31.68 398.473 28.276C402.247 24.872 408.13 23.17 416.122 23.17C424.04 23.17 429.923 24.909 433.771 28.387C437.619 31.865 439.691 35.898 439.987 40.486H424.891C423.855 36.416 420.71 34.381 415.456 34.381C410.794 34.381 408.463 36.009 408.463 39.265C408.463 40.745 409.166 41.929 410.572 42.817C412.052 43.631 415.049 44.593 419.563 45.703C424.225 46.813 428.036 48.034 430.996 49.366C434.03 50.698 436.287 52.252 437.767 54.028C439.247 55.73 440.246 57.432 440.764 59.134C441.282 60.762 441.541 62.76 441.541 65.128C441.541 70.308 439.469 74.637 435.325 78.115C431.181 81.593 425.002 83.332 416.788 83.332C408.574 83.332 402.358 81.63 398.14 78.226C393.996 74.822 391.554 70.308 390.814 64.684Z" fill="black"/>
</svg>
